<svg xmlns="http://www.w3.org/2000/svg" xmlns:xlink="http://www.w3.org/1999/xlink" width="73" height="73" version="1.1" viewBox="0 0 73 73"><title>WallettTansactionSendReceive</title><g id="Page-1" fill="none" fill-rule="evenodd" stroke="none" stroke-width="1"><g id="WallettTansactionSendReceive" transform="translate(0.000000, 0.000000)"><polygon id="Path" fill="#6EBFFF" fill-rule="nonzero" points="31 13 41 13 41 17 31 17"/><polygon id="Path" fill="#6EBFFF" fill-rule="nonzero" points="57 33 61 33 61 43 57 43"/><polygon id="Path" fill="#6EBFFF" fill-rule="nonzero" points="57.358 13 51 13 51 16.618 57.358 16.618 57.358 23 61 23 61 13"/><polygon id="Path" fill="#6EBFFF" fill-rule="nonzero" points="31 59 41 59 41 63 31 63"/><polygon id="Path" fill="#6EBFFF" fill-rule="nonzero" points="57.358 52 57.358 58.358 51 58.358 51 62 61 62 61 52"/><polygon id="Path" fill="#6EBFFF" fill-rule="nonzero" points="11 33 15 33 15 43 11 43"/><polygon id="Path" fill="#6EBFFF" fill-rule="nonzero" points="20.934 13 11 13 11 23 14.618 23 14.618 16.576 21 16.576 21 13"/><polygon id="Path" fill="#6EBFFF" fill-rule="nonzero" points="14.576 58.424 14.576 52 11 52 11 62 21 62 21 58.358 14.576 58.358"/><polygon id="Path" fill="#4AAFFF" fill-rule="nonzero" points="41.704 37.104 41.704 26 30.296 26 30.296 37.104 25 37.104 36 51 47 37.104"/><rect id="Rectangle" width="73" height="73" x="0" y="0"/></g></g></svg>